# xmcd CD database file
#
# Track frame offsets:
#	150
#	12767
#	42522
#	62040
#	75265
#	89672
#	102460
#	114772
#	132767
#	161255
#
# Disc length: 2309 seconds
#
# Revision: 2
# Processed by: cddbd v1.5PL3 Copyright (c) Steve Scherf et al.
# Submitted via: CDex 1.51
#
DISCID=7009030a
DTITLE=Robert Earl Keen - The Live Album
DYEAR=1988
DGENRE=Folk
TTITLE0=I Wanna Know
TTITLE1=The Front Porch Song
TTITLE2=Goin' Down In Style
TTITLE3=If I Were King
TTITLE4=Copenhagen
TTITLE5=I Would Change My Life
TTITLE6=Stewball
TTITLE7=I'll Go On Downtown
TTITLE8=The Bluegrass Widow
TTITLE9=Who'll Be Looking Out For Me
EXTD=YEAR: 1988
EXTT0=
EXTT1=
EXTT2=
EXTT3=
EXTT4=
EXTT5=
EXTT6=
EXTT7=
EXTT8=
EXTT9=
PLAYORDER=
